<mxfile host="app.diagrams.net" modified="2023-12-20T21:15:44.390Z" agent="Mozilla/5.0 (Windows NT 10.0; Win64; x64) AppleWebKit/537.36 (KHTML, like Gecko) Chrome/120.0.0.0 Safari/537.36 Edg/120.0.0.0" etag="jNsH5BnEza77x8B-F7zT" version="22.1.11" type="device">
  <diagram name="第 1 页" id="2QvlkVKpykxxY5k2BLEV">
    <mxGraphModel dx="1121" dy="530" grid="1" gridSize="10" guides="1" tooltips="1" connect="1" arrows="1" fold="1" page="1" pageScale="1" pageWidth="827" pageHeight="1169" background="none" math="0" shadow="0">
      <root>
        <mxCell id="0" />
        <mxCell id="1" parent="0" />
        <mxCell id="PMu6eXNjbO0ZbSAE-n2W-4" value="pharmacist" style="swimlane;whiteSpace=wrap;html=1;" parent="1" vertex="1">
          <mxGeometry x="80" y="100" width="285" height="850" as="geometry">
            <mxRectangle x="100" y="120" width="140" height="30" as="alternateBounds" />
          </mxGeometry>
        </mxCell>
        <mxCell id="PMu6eXNjbO0ZbSAE-n2W-12" value="" style="ellipse;whiteSpace=wrap;html=1;fillColor=#000000;strokeColor=#0a0a0a;" parent="PMu6eXNjbO0ZbSAE-n2W-4" vertex="1">
          <mxGeometry x="122.5" y="40" width="40" height="40" as="geometry" />
        </mxCell>
        <mxCell id="PMu6eXNjbO0ZbSAE-n2W-22" value="Receive prescription" style="rounded=1;whiteSpace=wrap;html=1;" parent="PMu6eXNjbO0ZbSAE-n2W-4" vertex="1">
          <mxGeometry x="103.75" y="110" width="77.5" height="30" as="geometry" />
        </mxCell>
        <mxCell id="PMu6eXNjbO0ZbSAE-n2W-31" value="" style="rhombus;whiteSpace=wrap;html=1;" parent="PMu6eXNjbO0ZbSAE-n2W-4" vertex="1">
          <mxGeometry x="116.25" y="170" width="52.5" height="50" as="geometry" />
        </mxCell>
        <mxCell id="PMu6eXNjbO0ZbSAE-n2W-32" value="" style="endArrow=classic;html=1;rounded=0;exitX=0.5;exitY=1;exitDx=0;exitDy=0;entryX=0.5;entryY=0;entryDx=0;entryDy=0;" parent="PMu6eXNjbO0ZbSAE-n2W-4" source="PMu6eXNjbO0ZbSAE-n2W-22" target="PMu6eXNjbO0ZbSAE-n2W-31" edge="1">
          <mxGeometry width="50" height="50" relative="1" as="geometry">
            <mxPoint x="310" y="310" as="sourcePoint" />
            <mxPoint x="360" y="260" as="targetPoint" />
          </mxGeometry>
        </mxCell>
        <mxCell id="PMu6eXNjbO0ZbSAE-n2W-44" value="Dispensing drugs" style="rounded=1;whiteSpace=wrap;html=1;" parent="PMu6eXNjbO0ZbSAE-n2W-4" vertex="1">
          <mxGeometry x="82.5" y="310" width="120" height="60" as="geometry" />
        </mxCell>
        <mxCell id="PMu6eXNjbO0ZbSAE-n2W-54" value="Monitoring drug effects" style="rounded=1;whiteSpace=wrap;html=1;" parent="PMu6eXNjbO0ZbSAE-n2W-4" vertex="1">
          <mxGeometry x="93.75" y="580" width="97.5" height="40" as="geometry" />
        </mxCell>
        <mxCell id="PMu6eXNjbO0ZbSAE-n2W-58" value="" style="rounded=0;whiteSpace=wrap;html=1;fillColor=#000000;" parent="PMu6eXNjbO0ZbSAE-n2W-4" vertex="1">
          <mxGeometry x="82.5" y="660" width="120" height="10" as="geometry" />
        </mxCell>
        <mxCell id="PMu6eXNjbO0ZbSAE-n2W-60" value="Guidance taking medication" style="rounded=1;whiteSpace=wrap;html=1;" parent="PMu6eXNjbO0ZbSAE-n2W-4" vertex="1">
          <mxGeometry x="70" y="710" width="90" height="40" as="geometry" />
        </mxCell>
        <mxCell id="PMu6eXNjbO0ZbSAE-n2W-62" value="" style="ellipse;html=1;shape=endState;fillColor=#000000;strokeColor=#1d1b1b;" parent="PMu6eXNjbO0ZbSAE-n2W-4" vertex="1">
          <mxGeometry x="90" y="780" width="50" height="50" as="geometry" />
        </mxCell>
        <mxCell id="PMu6eXNjbO0ZbSAE-n2W-61" value="" style="endArrow=classic;html=1;rounded=0;elbow=vertical;exitX=0.5;exitY=1;exitDx=0;exitDy=0;entryX=0.5;entryY=0;entryDx=0;entryDy=0;" parent="PMu6eXNjbO0ZbSAE-n2W-4" source="PMu6eXNjbO0ZbSAE-n2W-60" target="PMu6eXNjbO0ZbSAE-n2W-62" edge="1">
          <mxGeometry width="50" height="50" relative="1" as="geometry">
            <mxPoint x="320" y="590" as="sourcePoint" />
            <mxPoint x="115" y="710" as="targetPoint" />
          </mxGeometry>
        </mxCell>
        <mxCell id="PMu6eXNjbO0ZbSAE-n2W-67" value="" style="endArrow=classic;html=1;rounded=0;elbow=vertical;entryX=0.5;entryY=0;entryDx=0;entryDy=0;exitX=0.25;exitY=1;exitDx=0;exitDy=0;" parent="PMu6eXNjbO0ZbSAE-n2W-4" source="PMu6eXNjbO0ZbSAE-n2W-58" target="PMu6eXNjbO0ZbSAE-n2W-60" edge="1">
          <mxGeometry width="50" height="50" relative="1" as="geometry">
            <mxPoint x="120" y="690" as="sourcePoint" />
            <mxPoint x="230" y="670" as="targetPoint" />
          </mxGeometry>
        </mxCell>
        <mxCell id="PMu6eXNjbO0ZbSAE-n2W-68" value="Inspection of measurements and drug forms" style="rounded=1;whiteSpace=wrap;html=1;" parent="PMu6eXNjbO0ZbSAE-n2W-4" vertex="1">
          <mxGeometry x="92.5" y="490" width="100" height="45" as="geometry" />
        </mxCell>
        <mxCell id="PMu6eXNjbO0ZbSAE-n2W-59" value="" style="endArrow=classic;html=1;rounded=0;elbow=vertical;exitX=0.5;exitY=1;exitDx=0;exitDy=0;entryX=0.5;entryY=0;entryDx=0;entryDy=0;" parent="PMu6eXNjbO0ZbSAE-n2W-4" source="PMu6eXNjbO0ZbSAE-n2W-54" target="PMu6eXNjbO0ZbSAE-n2W-58" edge="1">
          <mxGeometry width="50" height="50" relative="1" as="geometry">
            <mxPoint x="70" y="680" as="sourcePoint" />
            <mxPoint x="50" y="720" as="targetPoint" />
          </mxGeometry>
        </mxCell>
        <mxCell id="PMu6eXNjbO0ZbSAE-n2W-6" value="Drug dispensing system" style="swimlane;whiteSpace=wrap;html=1;" parent="1" vertex="1">
          <mxGeometry x="450" y="100" width="420" height="850" as="geometry" />
        </mxCell>
        <mxCell id="PMu6eXNjbO0ZbSAE-n2W-25" value="Doctors uploading prescriptions" style="rounded=1;whiteSpace=wrap;html=1;" parent="PMu6eXNjbO0ZbSAE-n2W-6" vertex="1">
          <mxGeometry x="90" y="105" width="100" height="40" as="geometry" />
        </mxCell>
        <mxCell id="PMu6eXNjbO0ZbSAE-n2W-38" value="Drug warehouse" style="rounded=1;whiteSpace=wrap;html=1;" parent="PMu6eXNjbO0ZbSAE-n2W-6" vertex="1">
          <mxGeometry x="80" y="220" width="120" height="60" as="geometry" />
        </mxCell>
        <mxCell id="PMu6eXNjbO0ZbSAE-n2W-41" value="" style="rhombus;whiteSpace=wrap;html=1;" parent="PMu6eXNjbO0ZbSAE-n2W-6" vertex="1">
          <mxGeometry x="110" y="310" width="60" height="60" as="geometry" />
        </mxCell>
        <mxCell id="PMu6eXNjbO0ZbSAE-n2W-47" value="Replenishment of drug stocks" style="rounded=1;whiteSpace=wrap;html=1;" parent="PMu6eXNjbO0ZbSAE-n2W-6" vertex="1">
          <mxGeometry x="170" y="362.5" width="90" height="35" as="geometry" />
        </mxCell>
        <mxCell id="PMu6eXNjbO0ZbSAE-n2W-45" value="Restocking" style="html=1;verticalAlign=bottom;endArrow=block;rounded=0;elbow=vertical;exitX=1;exitY=0.5;exitDx=0;exitDy=0;entryX=0.5;entryY=0;entryDx=0;entryDy=0;edgeStyle=orthogonalEdgeStyle;" parent="PMu6eXNjbO0ZbSAE-n2W-6" source="PMu6eXNjbO0ZbSAE-n2W-41" target="PMu6eXNjbO0ZbSAE-n2W-47" edge="1">
          <mxGeometry x="-0.0196" width="80" relative="1" as="geometry">
            <mxPoint x="90" y="400" as="sourcePoint" />
            <mxPoint x="250" y="340" as="targetPoint" />
            <mxPoint as="offset" />
          </mxGeometry>
        </mxCell>
        <mxCell id="PMu6eXNjbO0ZbSAE-n2W-49" value="Patient Reply Slip" style="rounded=1;whiteSpace=wrap;html=1;" parent="PMu6eXNjbO0ZbSAE-n2W-6" vertex="1">
          <mxGeometry x="90" y="410" width="100" height="40" as="geometry" />
        </mxCell>
        <mxCell id="PMu6eXNjbO0ZbSAE-n2W-52" value="" style="rhombus;whiteSpace=wrap;html=1;" parent="PMu6eXNjbO0ZbSAE-n2W-6" vertex="1">
          <mxGeometry x="110" y="480" width="60" height="60" as="geometry" />
        </mxCell>
        <mxCell id="PMu6eXNjbO0ZbSAE-n2W-55" value="Patient not confirm prescription" style="html=1;verticalAlign=bottom;endArrow=block;rounded=0;elbow=vertical;exitX=1;exitY=0.5;exitDx=0;exitDy=0;entryX=1;entryY=0.5;entryDx=0;entryDy=0;edgeStyle=orthogonalEdgeStyle;" parent="PMu6eXNjbO0ZbSAE-n2W-6" source="PMu6eXNjbO0ZbSAE-n2W-52" target="PMu6eXNjbO0ZbSAE-n2W-49" edge="1">
          <mxGeometry width="80" relative="1" as="geometry">
            <mxPoint x="-70" y="400" as="sourcePoint" />
            <mxPoint x="10" y="400" as="targetPoint" />
            <Array as="points">
              <mxPoint x="260" y="510" />
              <mxPoint x="260" y="430" />
            </Array>
            <mxPoint as="offset" />
          </mxGeometry>
        </mxCell>
        <mxCell id="PMu6eXNjbO0ZbSAE-n2W-21" value="" style="endArrow=classic;html=1;rounded=0;exitX=0.5;exitY=1;exitDx=0;exitDy=0;" parent="1" source="PMu6eXNjbO0ZbSAE-n2W-12" edge="1">
          <mxGeometry width="50" height="50" relative="1" as="geometry">
            <mxPoint x="223" y="230" as="sourcePoint" />
            <mxPoint x="223" y="210" as="targetPoint" />
          </mxGeometry>
        </mxCell>
        <mxCell id="PMu6eXNjbO0ZbSAE-n2W-27" value="" style="endArrow=classic;html=1;rounded=0;entryX=1;entryY=0.5;entryDx=0;entryDy=0;dashed=1;" parent="1" target="PMu6eXNjbO0ZbSAE-n2W-22" edge="1">
          <mxGeometry width="50" height="50" relative="1" as="geometry">
            <mxPoint x="360" y="225" as="sourcePoint" />
            <mxPoint x="440" y="80" as="targetPoint" />
          </mxGeometry>
        </mxCell>
        <mxCell id="PMu6eXNjbO0ZbSAE-n2W-29" value="" style="edgeStyle=orthogonalEdgeStyle;rounded=0;orthogonalLoop=1;jettySize=auto;html=1;dashed=1;" parent="1" target="PMu6eXNjbO0ZbSAE-n2W-22" edge="1">
          <mxGeometry relative="1" as="geometry">
            <mxPoint x="370" y="225" as="sourcePoint" />
          </mxGeometry>
        </mxCell>
        <mxCell id="PMu6eXNjbO0ZbSAE-n2W-30" value="" style="endArrow=classic;html=1;rounded=0;exitX=0;exitY=0.5;exitDx=0;exitDy=0;entryX=1;entryY=0.5;entryDx=0;entryDy=0;dashed=1;" parent="1" source="PMu6eXNjbO0ZbSAE-n2W-25" edge="1">
          <mxGeometry width="50" height="50" relative="1" as="geometry">
            <mxPoint x="390" y="410" as="sourcePoint" />
            <mxPoint x="440" y="225" as="targetPoint" />
          </mxGeometry>
        </mxCell>
        <mxCell id="PMu6eXNjbO0ZbSAE-n2W-35" value="Correct&amp;nbsp;&amp;nbsp;prescription" style="html=1;verticalAlign=bottom;endArrow=block;rounded=0;elbow=vertical;exitX=0;exitY=0.5;exitDx=0;exitDy=0;edgeStyle=orthogonalEdgeStyle;entryX=0;entryY=0.5;entryDx=0;entryDy=0;" parent="1" source="PMu6eXNjbO0ZbSAE-n2W-31" target="PMu6eXNjbO0ZbSAE-n2W-38" edge="1">
          <mxGeometry width="80" relative="1" as="geometry">
            <mxPoint x="230" y="500" as="sourcePoint" />
            <mxPoint x="550" y="450" as="targetPoint" />
            <Array as="points">
              <mxPoint x="130" y="295" />
              <mxPoint x="130" y="350" />
            </Array>
          </mxGeometry>
        </mxCell>
        <mxCell id="PMu6eXNjbO0ZbSAE-n2W-39" value="prescription" style="rounded=0;whiteSpace=wrap;html=1;" parent="1" vertex="1">
          <mxGeometry x="370" y="210" width="70" height="30" as="geometry" />
        </mxCell>
        <mxCell id="PMu6eXNjbO0ZbSAE-n2W-40" value="" style="endArrow=classic;html=1;rounded=0;elbow=vertical;exitX=0.5;exitY=1;exitDx=0;exitDy=0;" parent="1" source="PMu6eXNjbO0ZbSAE-n2W-38" edge="1">
          <mxGeometry width="50" height="50" relative="1" as="geometry">
            <mxPoint x="460" y="380" as="sourcePoint" />
            <mxPoint x="590" y="410" as="targetPoint" />
          </mxGeometry>
        </mxCell>
        <mxCell id="PMu6eXNjbO0ZbSAE-n2W-42" value="Sufficient stock" style="html=1;verticalAlign=bottom;endArrow=block;curved=0;rounded=0;elbow=vertical;exitX=0;exitY=0.5;exitDx=0;exitDy=0;entryX=1;entryY=0.5;entryDx=0;entryDy=0;" parent="1" source="PMu6eXNjbO0ZbSAE-n2W-41" target="PMu6eXNjbO0ZbSAE-n2W-44" edge="1">
          <mxGeometry x="0.0045" width="80" relative="1" as="geometry">
            <mxPoint x="340" y="360" as="sourcePoint" />
            <mxPoint x="300" y="440" as="targetPoint" />
            <mxPoint as="offset" />
          </mxGeometry>
        </mxCell>
        <mxCell id="PMu6eXNjbO0ZbSAE-n2W-48" value="Medication advice, Drug information" style="html=1;verticalAlign=bottom;endArrow=block;rounded=0;elbow=vertical;exitX=0.5;exitY=1;exitDx=0;exitDy=0;edgeStyle=orthogonalEdgeStyle;entryX=0;entryY=0.5;entryDx=0;entryDy=0;" parent="1" source="PMu6eXNjbO0ZbSAE-n2W-44" target="PMu6eXNjbO0ZbSAE-n2W-49" edge="1">
          <mxGeometry width="80" relative="1" as="geometry">
            <mxPoint x="350" y="500" as="sourcePoint" />
            <mxPoint x="420" y="570" as="targetPoint" />
          </mxGeometry>
        </mxCell>
        <mxCell id="PMu6eXNjbO0ZbSAE-n2W-51" value="" style="endArrow=classic;html=1;rounded=0;elbow=vertical;exitX=0.5;exitY=1;exitDx=0;exitDy=0;" parent="1" source="PMu6eXNjbO0ZbSAE-n2W-49" edge="1">
          <mxGeometry width="50" height="50" relative="1" as="geometry">
            <mxPoint x="400" y="520" as="sourcePoint" />
            <mxPoint x="590" y="580" as="targetPoint" />
          </mxGeometry>
        </mxCell>
        <mxCell id="PMu6eXNjbO0ZbSAE-n2W-53" value="Patient confirms prescription" style="html=1;verticalAlign=bottom;endArrow=block;curved=0;rounded=0;elbow=vertical;exitX=0;exitY=0.5;exitDx=0;exitDy=0;entryX=1.01;entryY=0.414;entryDx=0;entryDy=0;entryPerimeter=0;" parent="1" source="PMu6eXNjbO0ZbSAE-n2W-52" target="PMu6eXNjbO0ZbSAE-n2W-68" edge="1">
          <mxGeometry x="-0.004" width="80" relative="1" as="geometry">
            <mxPoint x="380" y="500" as="sourcePoint" />
            <mxPoint x="310" y="610" as="targetPoint" />
            <mxPoint as="offset" />
          </mxGeometry>
        </mxCell>
        <mxCell id="PMu6eXNjbO0ZbSAE-n2W-56" value="" style="endArrow=classic;html=1;rounded=0;elbow=vertical;exitX=0.5;exitY=1;exitDx=0;exitDy=0;" parent="1" source="PMu6eXNjbO0ZbSAE-n2W-68" edge="1">
          <mxGeometry width="50" height="50" relative="1" as="geometry">
            <mxPoint x="230" y="650" as="sourcePoint" />
            <mxPoint x="223" y="680" as="targetPoint" />
          </mxGeometry>
        </mxCell>
        <mxCell id="PMu6eXNjbO0ZbSAE-n2W-63" value="Documentation drug effects" style="html=1;verticalAlign=bottom;endArrow=block;rounded=0;elbow=vertical;entryX=1;entryY=0.5;entryDx=0;entryDy=0;edgeStyle=orthogonalEdgeStyle;exitX=0.75;exitY=1;exitDx=0;exitDy=0;" parent="1" source="PMu6eXNjbO0ZbSAE-n2W-58" target="PMu6eXNjbO0ZbSAE-n2W-38" edge="1">
          <mxGeometry x="-0.0008" width="80" relative="1" as="geometry">
            <mxPoint x="290" y="820" as="sourcePoint" />
            <mxPoint x="540" y="500" as="targetPoint" />
            <Array as="points">
              <mxPoint x="252" y="800" />
              <mxPoint x="800" y="800" />
              <mxPoint x="800" y="350" />
            </Array>
            <mxPoint as="offset" />
          </mxGeometry>
        </mxCell>
        <mxCell id="PMu6eXNjbO0ZbSAE-n2W-64" value="Incorrect prescriptions" style="rounded=0;whiteSpace=wrap;html=1;" parent="1" vertex="1">
          <mxGeometry x="367.5" y="280" width="75" height="30" as="geometry" />
        </mxCell>
        <mxCell id="PMu6eXNjbO0ZbSAE-n2W-65" value="" style="endArrow=classic;html=1;rounded=0;elbow=vertical;exitX=1;exitY=0.5;exitDx=0;exitDy=0;entryX=0;entryY=0.5;entryDx=0;entryDy=0;" parent="1" source="PMu6eXNjbO0ZbSAE-n2W-31" target="PMu6eXNjbO0ZbSAE-n2W-64" edge="1">
          <mxGeometry width="50" height="50" relative="1" as="geometry">
            <mxPoint x="420" y="530" as="sourcePoint" />
            <mxPoint x="470" y="480" as="targetPoint" />
          </mxGeometry>
        </mxCell>
        <mxCell id="PMu6eXNjbO0ZbSAE-n2W-66" value="" style="endArrow=classic;html=1;rounded=0;elbow=vertical;exitX=1;exitY=0.5;exitDx=0;exitDy=0;entryX=0.5;entryY=1;entryDx=0;entryDy=0;edgeStyle=orthogonalEdgeStyle;" parent="1" source="PMu6eXNjbO0ZbSAE-n2W-64" target="PMu6eXNjbO0ZbSAE-n2W-25" edge="1">
          <mxGeometry width="50" height="50" relative="1" as="geometry">
            <mxPoint x="420" y="530" as="sourcePoint" />
            <mxPoint x="470" y="480" as="targetPoint" />
          </mxGeometry>
        </mxCell>
        <mxCell id="EgzI-N-6rz15xytlSz8V-1" value="" style="endArrow=classic;html=1;rounded=0;exitX=0;exitY=0.5;exitDx=0;exitDy=0;entryX=1.011;entryY=0.885;entryDx=0;entryDy=0;entryPerimeter=0;edgeStyle=orthogonalEdgeStyle;" edge="1" parent="1" source="PMu6eXNjbO0ZbSAE-n2W-47" target="PMu6eXNjbO0ZbSAE-n2W-44">
          <mxGeometry width="50" height="50" relative="1" as="geometry">
            <mxPoint x="450" y="650" as="sourcePoint" />
            <mxPoint x="500" y="600" as="targetPoint" />
            <Array as="points">
              <mxPoint x="410" y="480" />
              <mxPoint x="410" y="463" />
            </Array>
          </mxGeometry>
        </mxCell>
      </root>
    </mxGraphModel>
  </diagram>
</mxfile>
